<?xml version="1.0" encoding="UTF-8" standalone="no"?>
<!-- Created with Inkscape (http://www.inkscape.org/) -->

<svg
   xmlns:dc="http://purl.org/dc/elements/1.1/"
   xmlns:cc="http://creativecommons.org/ns#"
   xmlns:rdf="http://www.w3.org/1999/02/22-rdf-syntax-ns#"
   xmlns:svg="http://www.w3.org/2000/svg"
   xmlns="http://www.w3.org/2000/svg"
   xmlns:sodipodi="http://sodipodi.sourceforge.net/DTD/sodipodi-0.dtd"
   xmlns:inkscape="http://www.inkscape.org/namespaces/inkscape"
   width="108.47916mm"
   height="91.037453mm"
   viewBox="0 0 108.47916 91.037453"
   version="1.1"
   id="svg8"
   inkscape:version="0.92.3 (2405546, 2018-03-11)"
   sodipodi:docname="Approach-slab-seat.svg">
  <defs
     id="defs2">
    <marker
       inkscape:isstock="true"
       style="overflow:visible"
       id="marker5121"
       refX="0"
       refY="0"
       orient="auto"
       inkscape:stockid="Arrow1Lend">
      <path
         transform="matrix(-0.8,0,0,-0.8,-10,0)"
         style="fill:#000000;fill-opacity:1;fill-rule:evenodd;stroke:#000000;stroke-width:1.00000003pt;stroke-opacity:1"
         d="M 0,0 5,-5 -12.5,0 5,5 Z"
         id="path5119"
         inkscape:connector-curvature="0" />
    </marker>
    <marker
       inkscape:isstock="true"
       style="overflow:visible"
       id="marker5069"
       refX="0"
       refY="0"
       orient="auto"
       inkscape:stockid="Arrow1Lstart">
      <path
         transform="matrix(0.8,0,0,0.8,10,0)"
         style="fill:#000000;fill-opacity:1;fill-rule:evenodd;stroke:#000000;stroke-width:1.00000003pt;stroke-opacity:1"
         d="M 0,0 5,-5 -12.5,0 5,5 Z"
         id="path5067"
         inkscape:connector-curvature="0" />
    </marker>
    <marker
       inkscape:isstock="true"
       style="overflow:visible"
       id="marker5005"
       refX="0"
       refY="0"
       orient="auto"
       inkscape:stockid="Arrow1Lend">
      <path
         transform="matrix(-0.8,0,0,-0.8,-10,0)"
         style="fill:#000000;fill-opacity:1;fill-rule:evenodd;stroke:#000000;stroke-width:1.00000003pt;stroke-opacity:1"
         d="M 0,0 5,-5 -12.5,0 5,5 Z"
         id="path5003"
         inkscape:connector-curvature="0" />
    </marker>
    <marker
       inkscape:stockid="Arrow1Lstart"
       orient="auto"
       refY="0"
       refX="0"
       id="Arrow1Lstart"
       style="overflow:visible"
       inkscape:isstock="true"
       inkscape:collect="always">
      <path
         id="path4561"
         d="M 0,0 5,-5 -12.5,0 5,5 Z"
         style="fill:#000000;fill-opacity:1;fill-rule:evenodd;stroke:#000000;stroke-width:1.00000003pt;stroke-opacity:1"
         transform="matrix(0.8,0,0,0.8,10,0)"
         inkscape:connector-curvature="0" />
    </marker>
    <marker
       inkscape:stockid="Arrow1Lend"
       orient="auto"
       refY="0"
       refX="0"
       id="Arrow1Lend"
       style="overflow:visible"
       inkscape:isstock="true"
       inkscape:collect="always">
      <path
         id="path4564"
         d="M 0,0 5,-5 -12.5,0 5,5 Z"
         style="fill:#000000;fill-opacity:1;fill-rule:evenodd;stroke:#000000;stroke-width:1.00000003pt;stroke-opacity:1"
         transform="matrix(-0.8,0,0,-0.8,-10,0)"
         inkscape:connector-curvature="0" />
    </marker>
  </defs>
  <sodipodi:namedview
     id="base"
     pagecolor="#ffffff"
     bordercolor="#666666"
     borderopacity="1.0"
     inkscape:pageopacity="0.0"
     inkscape:pageshadow="2"
     inkscape:zoom="0.70710678"
     inkscape:cx="754.91838"
     inkscape:cy="186.64861"
     inkscape:document-units="mm"
     inkscape:current-layer="layer1"
     showgrid="true"
     inkscape:window-width="1920"
     inkscape:window-height="986"
     inkscape:window-x="-11"
     inkscape:window-y="-11"
     inkscape:window-maximized="1"
     showguides="true"
     fit-margin-top="0"
     fit-margin-left="0"
     fit-margin-right="0"
     fit-margin-bottom="0">
    <inkscape:grid
       type="xygrid"
       id="grid10"
       originx="-47.625"
       originy="-96.572923" />
  </sodipodi:namedview>
  <metadata
     id="metadata5">
    <rdf:RDF>
      <cc:Work
         rdf:about="">
        <dc:format>image/svg+xml</dc:format>
        <dc:type
           rdf:resource="http://purl.org/dc/dcmitype/StillImage" />
        <dc:title></dc:title>
      </cc:Work>
    </rdf:RDF>
  </metadata>
  <g
     inkscape:label="Calque 1"
     inkscape:groupmode="layer"
     id="layer1"
     transform="translate(-47.624999,-109.38963)">
    <path
       style="fill:#ff0000;stroke:#ff0000;stroke-width:1.5;stroke-linecap:butt;stroke-linejoin:miter;stroke-miterlimit:4;stroke-dasharray:none;stroke-opacity:1"
       d="m 71.437499,146.1875 h 1.322917"
       id="path876"
       inkscape:connector-curvature="0" />
    <rect
       style="fill:#b3b3b3;fill-opacity:1;stroke:#000000;stroke-width:0;stroke-miterlimit:4;stroke-dasharray:none;stroke-dashoffset:0;stroke-opacity:1"
       id="rect874"
       width="11.90625"
       height="1.3229166"
       x="74.083336"
       y="158.09375" />
    <path
       style="fill:#00ffff;stroke-width:0.99999994"
       d="m 330,742.51953 v -140 h -60 v -100 h -90 a 150,240 0 0 0 150,240 z"
       id="path44"
       transform="scale(0.26458333)"
       inkscape:connector-curvature="0" />
    <path
       style="fill:none;stroke:#000000;stroke-width:0.26458332px;stroke-linecap:butt;stroke-linejoin:miter;stroke-opacity:1"
       d="m 47.625,132.95833 h 23.8125 v 26.45834 h 15.875 v 37.04166"
       id="path12"
       inkscape:connector-curvature="0" />
    <rect
       style="fill:#00ffff;stroke-width:0.26458332"
       id="rect46"
       width="83.34375"
       height="25.135416"
       x="72.760414"
       y="132.95833" />
    <path
       style="fill:none;stroke:#000000;stroke-width:0.26499999;stroke-linecap:butt;stroke-linejoin:miter;stroke-miterlimit:4;stroke-dasharray:none;stroke-opacity:1;marker-end:url(#Arrow1Lend)"
       d="m 80.697917,113.11458 v 44.97917"
       id="path48"
       inkscape:connector-curvature="0" />
    <path
       style="fill:none;stroke:#000000;stroke-width:0.26458332px;stroke-linecap:butt;stroke-linejoin:miter;stroke-opacity:1"
       d="m 76.729166,159.41667 c 0.188989,0.22048 0.377976,0.44097 0.566965,0.66145 0.0315,0 0.07222,-0.0223 0.09449,0 0.02228,0.0223 -0.02228,0.0722 0,0.0945 0.02228,0.0223 0.07222,-0.0223 0.09449,0 0.02273,0.0227 -0.02273,0.35524 0,0.37797 0.02228,0.0223 0.07222,-0.0223 0.0945,0 0.04725,0.0472 -0.04725,0.23624 0,0.28349 0.02228,0.0223 0.07222,-0.0223 0.09449,0 0.04454,0.0445 -0.04455,0.14444 0,0.18898 0.02228,0.0223 0.07222,-0.0223 0.09449,0 0.02228,0.0223 -0.01408,0.0663 0,0.0945 0.01992,0.0398 0.07457,0.0547 0.09449,0.0945 0.01408,0.0282 -0.02228,0.0722 0,0.0945 0.02228,0.0223 0.07222,-0.0223 0.0945,0 0.02585,0.0258 -0.02564,0.32671 0,0.37797 0.01992,0.0398 0.07457,0.0547 0.09449,0.0945 0.01241,0.0248 0,0.32856 0,0.37797 0,0.25199 0,0.50397 0,0.75595 0,0.0315 -0.02228,0.0722 0,0.0945 0.02228,0.0223 0.07222,-0.0223 0.09449,0 0.04725,0.0472 -0.04725,0.23623 0,0.28348 0.02228,0.0223 0.07222,-0.0223 0.0945,0 0.04454,0.0445 -0.04455,0.14444 0,0.18899 0.02228,0.0223 0.07222,-0.0223 0.09449,0 0.02228,0.0223 -0.02228,0.0722 0,0.0945 0.04725,0.0472 0.236236,-0.0472 0.283482,0 0.02228,0.0223 -0.02228,0.0722 0,0.0945 0.04455,0.0445 0.132641,-0.0282 0.188987,0 0.03984,0.0199 0.05465,0.0746 0.0945,0.0945 0.05635,0.0282 0.144441,-0.0445 0.188986,0 0.02228,0.0223 -0.02228,0.0722 0,0.0945 0.02228,0.0223 0.07222,-0.0223 0.09449,0 0.02228,0.0223 -0.02228,0.0722 0,0.0945 0.04454,0.0445 0.144444,-0.0446 0.188989,0 0.02228,0.0223 -0.02228,0.0722 0,0.0945 0.02228,0.0223 0.07222,-0.0223 0.09449,0 0.04455,0.0445 -0.04454,0.14445 0,0.18899 0.02228,0.0223 0.07222,-0.0223 0.0945,0 0.04725,0.0472 -0.04725,0.23624 0,0.28348 0.02228,0.0223 0.07222,-0.0223 0.09449,0 0.02228,0.0223 -0.02228,0.0722 0,0.0945 0.02228,0.0223 0.07222,-0.0223 0.09449,0 0.02228,0.0223 -0.02228,0.0722 0,0.0945 0.02228,0.0223 0.07222,-0.0223 0.09449,0 0.02228,0.0223 -0.02228,0.0722 0,0.0945 0.02228,0.0223 0.07222,-0.0223 0.0945,0 0.04454,0.0445 -0.04454,0.14444 0,0.18898 0.02228,0.0223 0.07222,-0.0223 0.09449,0 0.02228,0.0223 -0.02228,0.0722 0,0.0945 0.02228,0.0223 0.06632,-0.0141 0.09449,0 0.03984,0.0199 0.063,0.063 0.0945,0.0945 0.0315,0.0315 0.07457,0.0546 0.09449,0.0945 0.01408,0.0282 -0.02228,0.0722 0,0.0945 0.02228,0.0223 0.07222,-0.0223 0.09449,0 0.02228,0.0223 -0.02228,0.0722 0,0.0945 0.02228,0.0223 0.06632,-0.0141 0.09449,0 0.07968,0.0399 0.109305,0.14915 0.18899,0.18899 0.02817,0.0141 0.07222,-0.0223 0.09449,0 0.368787,0.36879 -0.02188,0.0508 0.0945,0.28348 0.01992,0.0399 0.07457,0.0547 0.09449,0.0945 0.01408,0.0282 0,0.063 0,0.0945 0.0315,0.0315 0.07457,0.0546 0.09449,0.0945 0.01408,0.0282 -0.02228,0.0722 0,0.0945 0.195512,0.19551 -0.0076,-0.29877 0.18899,0.0945 0.01873,0.0375 -0.01932,0.26416 0,0.28347 0.02228,0.0223 0.07222,-0.0223 0.09449,0 0.02228,0.0223 0,0.063 0,0.0945 0,0.18899 0,0.37798 0,0.56696 0,0.0315 -0.02228,0.0722 0,0.0945 0.02228,0.0223 0.07222,-0.0223 0.09449,0 0.03317,0.0332 -0.03263,0.4072 0,0.47247 0.03984,0.0797 0.149146,0.1093 0.188989,0.18899 0.01408,0.0282 -0.02228,0.0722 0,0.0945 0.04455,0.0445 0.132644,-0.0282 0.188987,0 0.433319,0.21666 -0.322646,0 -0.09449,0 0.477366,0 0.145243,0.0726 0.377976,0.18899 0.02817,0.0141 0.07222,-0.0223 0.0945,0 0.02228,0.0223 -0.02228,0.0722 0,0.0945 0.04725,0.0472 0.236233,-0.0472 0.283479,0 0.02228,0.0223 0,0.063 0,0.0945 0,0.0315 0.02228,0.0722 0,0.0945 -0.02228,0.0223 -0.07222,-0.0223 -0.09449,0 -0.01931,0.0193 0.01873,0.24602 0,0.28348 -0.01992,0.0399 -0.07457,0.0547 -0.09449,0.0945 -0.01405,0.0281 0,0.52721 0,0.56696 0,0.0315 -0.01408,0.0663 0,0.0945 0.01992,0.0398 0.07457,0.0547 0.09449,0.0945 0.0378,0.0756 -0.0378,0.20789 0,0.28348 0.313399,0.3134 -0.04454,-0.0891 0.09449,0.18899 0.01992,0.0398 0.063,0.063 0.0945,0.0945 0.0315,0.0315 0.05743,0.0698 0.09449,0.0945 0.0586,0.0391 0.139186,0.0447 0.188989,0.0945 0.02228,0.0223 -0.02228,0.0722 0,0.0945 0.368784,0.36879 0.05075,-0.0219 0.28348,0.0945 0.393263,0.19663 -0.101016,-0.007 0.0945,0.18899 0.0038,0.004 0.343273,0 0.377975,0 0.0347,0 0.374174,-0.004 0.377976,0 0.02228,0.0223 -0.02228,0.0722 0,0.0945 0.02228,0.0223 0.07222,-0.0223 0.09449,0 0.02228,0.0223 -0.02228,0.0722 0,0.0945 0.02228,0.0223 0.07222,-0.0223 0.0945,0 0.02228,0.0223 -0.01408,0.0663 0,0.0945 0.0315,0.0315 0.06299,0.063 0.09449,0.0945 0.0315,0.0315 0.07457,0.0547 0.09449,0.0945 0.01408,0.0282 -0.01408,0.0663 0,0.0945 0.01992,0.0398 0.07457,0.0547 0.09449,0.0945 0.02817,0.0563 -0.04454,0.14444 0,0.18898 0.02228,0.0223 0.06632,-0.0141 0.0945,0 0.03984,0.0199 0.05465,0.0746 0.09449,0.0945 0.02817,0.0141 0.07222,-0.0223 0.09449,0 0.02228,0.0223 -0.02228,0.0722 0,0.0945 0.115094,0.1151 0.211122,0.0443 0.283482,0.18899 0.01408,0.0282 -0.01408,0.0663 0,0.0945 0.01992,0.0399 0.07457,0.0547 0.09449,0.0945 0.01408,0.0282 -0.01408,0.0663 0,0.0945 0.01992,0.0398 0.07458,0.0547 0.0945,0.0945 0.01407,0.0282 -0.02228,0.0722 0,0.0945 0.02228,0.0223 0.07222,-0.0223 0.09449,0 0.04454,0.0446 -0.02817,0.13264 0,0.18899 0.01992,0.0398 0.07457,0.0546 0.09449,0.0945 0.01408,0.0282 0,0.063 0,0.0945 0.0315,0.0315 0.07457,0.0547 0.0945,0.0945 0.01408,0.0282 -0.02228,0.0722 0,0.0945 0.02228,0.0223 0.063,0 0.09449,0 0.188987,0 0.377976,0 0.566965,0 0.0315,0 0.07222,-0.0223 0.09449,0 0.02228,0.0223 -0.02228,0.0722 0,0.0945 0.02228,0.0223 0.07222,-0.0223 0.09449,0 0.02228,0.0223 -0.02228,0.0722 0,0.0945 0.195511,0.19552 -0.0076,-0.29876 0.188989,0.0945 0.02817,0.0563 -0.02817,0.13264 0,0.18899 0.196631,0.39326 -0.0065,-0.10102 0.188987,0.0945 0.04454,0.0445 -0.02817,0.13264 0,0.18899 0.01992,0.0398 0.07457,0.0547 0.0945,0.0945 0.01408,0.0282 -0.02228,0.0722 0,0.0945 0.02228,0.0223 0.09449,0.0315 0.09449,0 0,-0.0724 -0.342569,-0.24808 0,0.0945 0.02228,0.0223 0.063,0 0.09449,0 0.0315,0 0.07222,0.0223 0.09449,0 0.08031,-0.0803 0.125992,-0.18899 0.188989,-0.28348"
       id="path4849"
       inkscape:connector-curvature="0" />
    <path
       style="fill:none;stroke:#000000;stroke-width:0.26458332;stroke-linecap:butt;stroke-linejoin:miter;stroke-miterlimit:4;stroke-dasharray:2.11666654, 0.52916663, 0.26458332, 0.52916663;stroke-dashoffset:0;stroke-opacity:1"
       d="m 76.729166,147.51042 v 52.91666"
       id="path4851"
       inkscape:connector-curvature="0" />
    <path
       style="fill:none;stroke:#000000;stroke-width:0.26458332px;stroke-linecap:butt;stroke-linejoin:miter;stroke-opacity:1;marker-start:url(#Arrow1Lstart);marker-end:url(#marker5005)"
       d="M 76.729166,179.26042 H 87.312499"
       id="path4963"
       inkscape:connector-curvature="0" />
    <flowRoot
       xml:space="preserve"
       id="flowRoot5043"
       style="font-style:normal;font-weight:normal;font-size:40px;line-height:1.25;font-family:sans-serif;letter-spacing:0px;word-spacing:0px;fill:#000000;fill-opacity:1;stroke:none"
       transform="matrix(0.26458333,0,0,0.26458333,-17.330208,7.8052083)"><flowRegion
         id="flowRegion5045"><rect
           id="rect5047"
           width="80"
           height="55"
           x="370"
           y="627.51971" /></flowRegion><flowPara
         id="flowPara5049"
         style="font-size:18.66666603px">a</flowPara></flowRoot>    <flowRoot
       xml:space="preserve"
       id="flowRoot5051"
       style="font-style:normal;font-weight:normal;font-size:40px;line-height:1.25;font-family:sans-serif;letter-spacing:0px;word-spacing:0px;fill:#000000;fill-opacity:1;stroke:none"
       transform="matrix(0.26458333,0,0,0.26458333,59.984821,15.043451)"><flowRegion
         id="flowRegion5053"><rect
           id="rect5055"
           width="75"
           height="70"
           x="70"
           y="562.51971" /></flowRegion><flowPara
         id="flowPara5057"
         style="font-size:18.66666603px">θ</flowPara></flowRoot>    <path
       style="fill:none;stroke:#000000;stroke-width:0.26499999;stroke-miterlimit:4;stroke-dasharray:none;stroke-dashoffset:0;stroke-opacity:1"
       id="path5059"
       sodipodi:type="arc"
       sodipodi:cx="76.672287"
       sodipodi:cy="159.41672"
       sodipodi:rx="10.592148"
       sodipodi:ry="10.583435"
       sodipodi:start="1.0320227"
       sodipodi:end="1.5654262"
       d="M 82.106946,168.50089 A 10.592148,10.583435 0 0 1 76.729168,170"
       sodipodi:open="true" />
    <path
       style="fill:none;stroke:#000000;stroke-width:0.26458332px;stroke-linecap:butt;stroke-linejoin:miter;stroke-opacity:1"
       d="M 156.10416,132.95833 H 72.760416 v 25.13542 h 83.343744"
       id="path5239"
       inkscape:connector-curvature="0" />
    <flowRoot
       xml:space="preserve"
       id="flowRoot5241"
       style="font-style:normal;font-weight:normal;font-size:40px;line-height:1.25;font-family:sans-serif;letter-spacing:0px;word-spacing:0px;fill:#000000;fill-opacity:1;stroke:none"
       transform="matrix(0.26458333,0,0,0.26458333,33.734375,0.79375)"><flowRegion
         id="flowRegion5243"><rect
           id="rect5245"
           width="85"
           height="95"
           x="170"
           y="387.51968" /></flowRegion><flowPara
         id="flowPara5247"
         style="font-size:18.66666603px">P</flowPara></flowRoot>  </g>
</svg>
